<svg xmlns="http://www.w3.org/2000/svg" width="127.709" height="51.24" viewBox="0 0 127.709 51.24">
  <g id="Group_359" data-name="Group 359" transform="translate(-240.296 -262.905)">
    <path id="Path_28" data-name="Path 28" d="M366.75,293.126l-8.66,2.326a5.8,5.8,0,0,1-7.115-4.114q-.546-2.041-1.089-4.086a5.8,5.8,0,0,1,4.107-7.122l8.42-2.259c1.043-.279,1.379-1.067.827-1.778-2.8-3.605-9.887-5.062-13.732-5.238-4.037-.187-8.49.841-10.813,3.224-3.475,3.57-5.956,7.112-10.226,7.112H290.881a11.747,11.747,0,0,1-6.755-2.513h0c-.018-.071-.028-.141-.042-.212a5.661,5.661,0,0,1,.113-1.732,3.44,3.44,0,0,1,.622-1.382,2.679,2.679,0,0,0,.6-3.111,3.312,3.312,0,0,0-.336-.594,4.132,4.132,0,0,0-.332-.431l-.141-.141c-.258-.3-.541-.6-.827-.9a5.037,5.037,0,0,0-.862-.721c-.965-.725-1.99-.933-3.591.113a6.371,6.371,0,0,1-5.6.156c-1.895-.831-3.531-2.329-3.9-4.1-.378-1.789-1.191-2.393-2.312-2.591a4.58,4.58,0,0,0-1.265-.12c-.46.007-.912.018-1.34.053h-.085a4.022,4.022,0,0,0-1.163.233,2.694,2.694,0,0,0-1.81,2.647,2.381,2.381,0,0,1-.138.6,6.467,6.467,0,0,1-2.556,2.711,10.443,10.443,0,0,1-5.486,1.131,3.664,3.664,0,0,1-1.036-.421c-1.725-1.113-3.075-1.311-4.606.3-1.527,1.587-2.895,2.959-1.029,5.185a5.173,5.173,0,0,1,.728,1.845,11.034,11.034,0,0,1-.735,3.531,10.711,10.711,0,0,1-1.972,2.983,4.56,4.56,0,0,1-1.8.763c-2.867.286-2.863,2.223-2.934,4.4-.028,2.245,1.039,3.033,3.047,3.521a3.907,3.907,0,0,1,1.326.608q.27.244.541.541a7.665,7.665,0,0,1,1.923,2.98c.011-.007.018-.018.028-.025a6.309,6.309,0,0,1-.216,5.454c-1.163,1.782-.771,2.849.156,3.916l1.5,1.5c1.039.9,2.135,1.322,3.885.131,2.029-1.326,5.327-.7,7.508.841a5.357,5.357,0,0,1,2,3.089c.343,1.8,1.188,2.4,2.294,2.595.021,0,.039,0,.06.007a4.567,4.567,0,0,0,1.219.117c2.2-.042,4.139-.042,4.394-2.937a2.877,2.877,0,0,1,.254-.834,6.6,6.6,0,0,1,2.421-2.467,10.813,10.813,0,0,1,5.055-1.2,3.865,3.865,0,0,1,1.446.52c1.767,1.071,3.079,1.3,4.648-.339,1.485-1.552,2.856-2.955,1.032-5.182a4.5,4.5,0,0,1-.728-1.789c0-.1,0-.194.007-.293,0-.035,0-.071.007-.106,2.071-2.089,4.125-3.648,6.956-3.648h37.574c4.334,0,8.148,3.3,11.576,6.78,2.923,2.966,5.465,4.479,8.625,4.56.209,0,.424.011.64,0,7.759-.452,13.771-4.316,18.426-12.58C368.228,294.053,367.761,292.854,366.75,293.126Zm-88.6,3.764a21.292,21.292,0,0,1-1.725,2.11,15.118,15.118,0,0,1-20.282.848l-1.523-1.52a15.107,15.107,0,0,1-3.174-6.493c-.088-.488-.237-1.435-.318-2.315a14.974,14.974,0,0,1,24.591-12.29l1.52,1.523a12.331,12.331,0,0,1,1.333,1.856,9.115,9.115,0,0,0-.421,16.281Z" fill="#fac400"/>
    <path id="Path_29" data-name="Path 29" d="M297.911,316.629a21.3,21.3,0,0,1-1.725,2.11,15.118,15.118,0,0,1-20.282.848l-1.523-1.52a15.107,15.107,0,0,1-3.174-6.493c-.088-.488-.237-1.435-.318-2.315a14.974,14.974,0,0,1,24.591-12.29l1.52,1.523a12.33,12.33,0,0,1,1.333,1.856,9.115,9.115,0,0,0-.421,16.281Z" transform="translate(-19.762 -19.738)" fill="#181818"/>
    <g id="Group_6" data-name="Group 6" transform="translate(257.494 281.707)">
      <path id="Path_30" data-name="Path 30" d="M291.037,316.39a.352.352,0,0,1,.331-.294h.295a.406.406,0,0,1,.313.184l4.271,7.953h.037l4.271-7.953a.406.406,0,0,1,.313-.184h.294a.352.352,0,0,1,.332.294l2.08,12.371a.338.338,0,0,1-.35.405h-2.172a.374.374,0,0,1-.35-.294l-.828-5.689h-.037l-3.093,5.965a.43.43,0,0,1-.313.2H296.1a.4.4,0,0,1-.313-.2l-3.111-5.965h-.037l-.81,5.689a.358.358,0,0,1-.35.294h-2.172a.337.337,0,0,1-.35-.405Z" transform="translate(-288.951 -316.096)" fill="#ffb700"/>
    </g>
    <g id="Group_7" data-name="Group 7" transform="translate(276.057 282.106)">
      <path id="Path_31" data-name="Path 31" d="M348.029,317.226a6.581,6.581,0,1,1-6.562,6.6A6.569,6.569,0,0,1,348.029,317.226Zm0,10.237a3.656,3.656,0,1,0-3.638-3.638A3.663,3.663,0,0,0,348.029,327.463Z" transform="translate(-341.467 -317.226)" fill="#181818"/>
      <path id="Path_32" data-name="Path 32" d="M384.2,320.43h-2.614a.347.347,0,0,1-.347-.347V318.09a.347.347,0,0,1,.347-.347H389.7a.347.347,0,0,1,.347.347v1.993a.347.347,0,0,1-.347.347h-2.614v9.761a.36.36,0,0,1-.347.347h-2.194a.359.359,0,0,1-.347-.347Z" transform="translate(-367.179 -317.56)" fill="#181818"/>
      <path id="Path_33" data-name="Path 33" d="M415.312,317.226a6.581,6.581,0,1,1-6.563,6.6A6.569,6.569,0,0,1,415.312,317.226Zm0,10.237a3.656,3.656,0,1,0-3.638-3.638A3.663,3.663,0,0,0,415.312,327.463Z" transform="translate(-384.967 -317.226)" fill="#181818"/>
      <path id="Path_34" data-name="Path 34" d="M452.035,318.09a.347.347,0,0,1,.347-.347h7.568a.347.347,0,0,1,.347.347v1.993a.347.347,0,0,1-.347.347h-5.064v2.633h4.168a.36.36,0,0,1,.347.347V325.4a.36.36,0,0,1-.347.347h-4.168v4.442a.359.359,0,0,1-.347.347h-2.157a.347.347,0,0,1-.347-.347Z" transform="translate(-412.952 -317.56)" fill="#181818"/>
      <path id="Path_35" data-name="Path 35" d="M480.691,324.379l-4.04-6.106a.339.339,0,0,1,.292-.53h2.377a.363.363,0,0,1,.292.165l2.541,3.747,2.541-3.747a.337.337,0,0,1,.292-.165h2.376a.339.339,0,0,1,.293.53l-4.095,6.087v5.831a.359.359,0,0,1-.347.347h-2.175a.347.347,0,0,1-.347-.347Z" transform="translate(-428.83 -317.56)" fill="#181818"/>
      <path id="Path_36" data-name="Path 36" d="M512.54,323.976l-3.693-5.721a.329.329,0,0,1,.311-.512h2.669a.394.394,0,0,1,.292.165l2.1,3.4h.018l2.138-3.4a.364.364,0,0,1,.292-.165h2.669c.311,0,.475.274.311.512l-3.711,5.721,3.839,6.051a.319.319,0,0,1-.292.512h-2.541a.408.408,0,0,1-.311-.164l-2.394-3.693H514.2l-2.34,3.693a.4.4,0,0,1-.31.164h-2.541c-.311,0-.475-.274-.311-.512Z" transform="translate(-449.547 -317.56)" fill="#181818"/>
    </g>
  </g>
</svg>
